
<svg width="557px" height="451px" viewBox="0 0 557 451" version="1.1" xmlns="http://www.w3.org/2000/svg" xmlns:xlink="http://www.w3.org/1999/xlink">
    <!-- Generator: Sketch 51.3 (57544) - http://www.bohemiancoding.com/sketch -->
    <desc>Created with Sketch.</desc>
    <defs></defs>
    <g id="Page-1" stroke="none" stroke-width="1" fill="none" fill-rule="evenodd">
        <g id="Group-2" transform="translate(-2.000000, 0.000000)">
            <g id="woman-sitting-laptop" transform="translate(145.000000, 0.000000)">
                <path d="M315.66,274.94 C316.5,279.94 330.76,394.25 333.07,396.14 C335.38,398.03 359.91,402.22 362.01,399.07 C362.43,394.07 363.01,314.36 364.31,307.23" id="Shape" fill="#1F161E" fill-rule="nonzero"></path>
                <path d="M39.76,251.09 C29.87,246.21 50.49,342.75 104.76,342.75 C159.03,342.75 250.38,260.08 265.17,260.08 C297.82,260.08 375.11,324.19 381.17,324.19 C385.81,319.55 395.09,311.43 395.09,308.24 C395.09,305.05 321.09,183.24 265.72,183.24 C244.25,183.22 62.09,262.12 39.76,251.09 Z" id="Shape" fill="#50B89D" fill-rule="nonzero"></path>
                <path d="M70.3,252.73 C81.15,250.27 94.65,243.9 106.6,237.38 C74.09,248 47.45,254.89 39.76,251.09 C34.52,248.51 37.84,274.35 50.16,299.24 C47.93,294.42 44.75,258.52 70.3,252.73 Z" id="Shape" fill="#1F161E" fill-rule="nonzero"></path>
                <path d="M94.22,83.37 C102.77,83.6 147.28,82.29 159.48,93.91 C168.53,102.52 196.67,176.66 201.01,202.69 C182.11,212.29 45.79,277.57 3.6,248.86 C2.67,226.55 7,137.92 34.59,91.43 C44.68,84.71 86,83.15 94.22,83.37 Z" id="Shape" fill="#73E5E2" fill-rule="nonzero"></path>
                <path d="M111.56,62.15 L85.56,62.15 L85.56,90.1 C85.56,97.1 111.56,97.04 111.56,90.1 L111.56,62.15 Z" id="Shape" fill="#F8CDBA" fill-rule="nonzero"></path>
                <path d="M85.56,79 C85.56,75.9 94.15,68.11 99.46,68.38 C99.59,65 87.33,60 87.33,60 L85.56,64.77 L85.56,79 Z" id="Shape" fill="#1F161E" fill-rule="nonzero"></path>
                <path d="M138.79,62.15 C139.374402,59.4490241 139.6694,56.6934755 139.67,53.93 C139.67,33.31 123.56,16.59 103.67,16.59 C83.78,16.59 67.67,33.31 67.67,53.93 C67.6705996,56.6934755 67.9655975,59.4490241 68.55,62.15 L138.79,62.15 Z" id="Shape" fill="#1F161E" fill-rule="nonzero"></path>
                <path d="M129.3,37 C124.89,36.33 120.49,32.86 117.42,30.59 C99.92,43.41 88.71,43.59 87.5,43.59 C86.29,43.59 81.36,50.67 79.09,51.47 L78.89,51.35 C80.7439029,61.4986198 88.1603388,69.7353554 98.0595956,72.6398612 C107.958852,75.544367 118.649887,72.6204801 125.693194,65.0823591 C132.736501,57.5442381 134.928905,46.6795845 131.36,37 C130.675959,37.0849248 129.984041,37.0849248 129.3,37 Z" id="Shape" fill="#F8CDBA" fill-rule="nonzero"></path>
                <circle id="Oval" fill="#1F161E" fill-rule="nonzero" cx="84.17" cy="10.62" r="10.62"></circle>
                <path d="M88.9,43 C86.5161318,43.1128478 84.6413646,45.0784623 84.6413646,47.465 C84.6413646,49.8515377 86.5161318,51.8171522 88.9,51.93" id="Shape" stroke="#1F161E" stroke-linecap="round"></path>
                <path d="M122.94,43.54 C124.25,45.29 127.62,48.35 122.94,51.6" id="Shape" stroke="#1F161E" stroke-linecap="round"></path>
                <path d="M108.75,54 C108.75,55.31 109.31,58.44 112.12,59.25" id="Shape" stroke="#1F161E" stroke-linecap="round"></path>
                <ellipse id="Oval" fill="#FA9E9F" fill-rule="nonzero" cx="100.04" cy="52.14" rx="4.12" ry="2.14"></ellipse>
                <ellipse id="Oval" fill="#FA9E9F" fill-rule="nonzero" cx="130.67" cy="52.14" rx="4.12" ry="2.14"></ellipse>
                <path d="M158.54,160.64 L186.33,153.49 C189,158 202,202.64 202,202.64 L159.1,220.72 C159.66,212.26 161.35,173.6 158.54,160.64 Z" id="Shape" fill="#F8CDBA" fill-rule="nonzero"></path>
                <path d="M61.1,153.65 C61.1,157.01 58.27,169.8 56.6,175.81" id="Shape" stroke="#1F161E" stroke-linecap="round"></path>
                <path d="M158.54,160.64 C157.87,155.35 153.95,125.54 147.28,109.85" id="Shape" stroke="#1F161E" stroke-linecap="round"></path>
                <path d="M158.54,160.64 L186.33,153.49 C189,158 202,202.64 202,202.64 L159.1,220.72 C159.66,212.26 161.35,173.6 158.54,160.64 Z" id="Shape" fill="#F8CDBA" fill-rule="nonzero"></path>
                <path d="M382,321.83 C382.62,322.78 390.9,332.98 393.83,333.1 C396.76,333.22 414.55,321.16 413.77,318.57 C412.99,315.98 401.83,317.66 399.91,316.76 C397.99,315.86 393.72,311.58 393.04,309.67" id="Shape" fill="#1F161E" fill-rule="nonzero"></path>
                <path d="M338.25,397.2 C338.04,398.31 336.91,411.4 338.94,413.52 C340.97,415.64 362.14,419.32 363.37,416.91 C364.6,414.5 355.37,407.97 354.66,405.99 C353.95,404.01 353.8,397.99 354.66,396.11" id="Shape" fill="#1F161E" fill-rule="nonzero"></path>
                <polygon id="Shape" fill="#969696" fill-rule="nonzero" points="305.06 205.44 210.89 205.44 233.31 146.03 327.48 146.03"></polygon>
                <rect id="Rectangle-path" fill="#969696" fill-rule="nonzero" x="132.42" y="203.2" width="94.17" height="2.24"></rect>
                <path d="M56.6,175.81 C54.79,182.6 45.96,211.56 49.6,216.54 C53.24,221.52 142.84,210.2 166.83,202.74 C172.94,200.74 177.47,195.49 180.18,194.82 C187.367506,193.607494 194.317864,197.991301 196.32,205 C186.74,209.64 48.42,280.26 3.6,248.83 C-4.87,242.8 10,168.8 10.67,165.06 C18.24,166 56.6,175.81 56.6,175.81 Z" id="Shape" fill="#F8CDBA" fill-rule="nonzero"></path>
                <path d="M159.82,204.6 C162.52,203.96 164.88,203.34 166.82,202.74 C172.93,200.74 177.46,195.49 180.17,194.82 C187.36096,193.601911 194.317495,197.986897 196.32,205" id="Shape" stroke="#1F161E" stroke-linecap="round"></path>
            </g>
            <g id="stool-table" transform="translate(196.000000, 324.000000)">
                <ellipse id="Oval" fill="#000000" fill-rule="nonzero" cx="63.11" cy="13.95" rx="63.11" ry="13.95"></ellipse>
                <path d="M63.11,13.95 L27.65,124.89" id="Shape" stroke="#000000" stroke-width="4" stroke-linecap="round"></path>
                <path d="M63.11,13.95 L98.56,124.89" id="Shape" stroke="#000000" stroke-width="4" stroke-linecap="round"></path>
                <path d="M39.29,88.47 L78.82,63.13" id="Shape" stroke="#000000" stroke-width="2" stroke-linecap="round"></path>
                <path d="M47.24,63.13 L86.76,88.47" id="Shape" stroke="#000000" stroke-width="2" stroke-linecap="round"></path>
            </g>
            <g id="trestle-table" transform="translate(0.000000, 233.000000)" fill-rule="nonzero">
                <rect id="Rectangle-path" fill="#969696" transform="translate(526.583012, 111.941596) rotate(165.270000) translate(-526.583012, -111.941596) " x="521.463012" y="6.14159628" width="10.24" height="211.6" rx="5.12"></rect>
                <rect id="Rectangle-path" fill="#969696" transform="translate(464.967266, 111.944640) rotate(14.730000) translate(-464.967266, -111.944640) " x="459.847266" y="6.14463966" width="10.24" height="211.6" rx="5.12"></rect>
                <rect id="Rectangle-path" fill="#D8D8D8" transform="translate(394.328867, 111.953405) rotate(14.730000) translate(-394.328867, -111.953405) " x="389.208867" y="6.15340456" width="10.24" height="211.6" rx="5.12"></rect>
                <rect id="Rectangle-path" fill="#D8D8D8" transform="translate(455.052490, 111.946609) rotate(165.270000) translate(-455.052490, -111.946609) " x="449.93249" y="6.14660854" width="10.24" height="211.6" rx="5.12"></rect>
                <rect id="Rectangle-path" fill="#969696" transform="translate(106.682700, 111.838700) rotate(14.452428) translate(-106.682700, -111.838700) " x="101.554003" y="5.85899262" width="10.2573932" height="211.959415" rx="5.12"></rect>
                <rect id="Rectangle-path" fill="#969696" transform="translate(166.649500, 110.931300) rotate(165.547572) translate(-166.649500, -110.931300) " x="161.520803" y="4.95159262" width="10.2573932" height="211.959415" rx="5.12"></rect>
                <rect id="Rectangle-path" fill="#D8D8D8" x="27.36" y="0" width="504.23" height="15.15" rx="4.53"></rect>
                <rect id="Rectangle-path" fill="#D8D8D8" transform="translate(32.722941, 111.961408) rotate(14.730000) translate(-32.722941, -111.961408) " x="27.6029407" y="6.16140837" width="10.24" height="211.6" rx="5.12"></rect>
                <rect id="Rectangle-path" fill="#D8D8D8" transform="translate(93.458745, 111.947155) rotate(165.270000) translate(-93.458745, -111.947155) " x="88.3387453" y="6.14715499" width="10.24" height="211.6" rx="5.12"></rect>
            </g>
        </g>
    </g>
</svg>