
<svg width="527px" height="531px" viewBox="0 0 527 531" version="1.1" xmlns="http://www.w3.org/2000/svg" xmlns:xlink="http://www.w3.org/1999/xlink">
    <!-- Generator: Sketch 51.3 (57544) - http://www.bohemiancoding.com/sketch -->
    <desc>Created with Sketch.</desc>
    <defs></defs>
    <g id="Page-1" stroke="none" stroke-width="1" fill="none" fill-rule="evenodd">
        <g id="Group-3" transform="translate(0.000000, 1.000000)">
            <g id="web-ui-1">
                <rect id="Rectangle-path" stroke="#000000" x="0.496254682" y="0.496254682" width="525.037453" height="345.393258"></rect>
                <path d="M0.496254682,18.8576779 L525.533708,18.8576779" id="Shape" stroke="#000000"></path>
                <rect id="Rectangle-path" stroke="#000000" x="38.7078652" y="49.6254682" width="157.808989" height="157.808989"></rect>
                <path d="M226.78839,63.5205993 L467.968165,63.5205993" id="Shape" stroke="#000000"></path>
                <path d="M226.78839,87.340824 L467.968165,87.340824" id="Shape" stroke="#000000"></path>
                <path d="M226.78839,111.161049 L467.968165,111.161049" id="Shape" stroke="#000000"></path>
                <path d="M226.78839,134.981273 L467.968165,134.981273" id="Shape" stroke="#000000"></path>
                <polygon id="Shape" fill="#50B89D" fill-rule="nonzero" opacity="0.44" points="117.61236 91.3108614 74.6367041 165.749064 160.588015 165.749064"></polygon>
                <circle id="Oval" fill="#AB8DE5" fill-rule="nonzero" cx="11.9101124" cy="9.92509363" r="4.46629213"></circle>
                <circle id="Oval" fill="#73E5E2" fill-rule="nonzero" cx="27.2940075" cy="9.92509363" r="4.46629213"></circle>
                <circle id="Oval" fill="#50B89D" fill-rule="nonzero" cx="42.6779026" cy="9.92509363" r="4.46629213"></circle>
            </g>
            <g id="woman-writing" transform="translate(292.790262, 159.794007)">
                <path d="M171.356504,359.28839 C171.429834,360.442291 172.17128,367.194173 171.234288,368.387058 C169.515112,370.546725 154.498797,370.437572 153.757352,369.813841 C153.015906,369.190111 152.510745,367.802311 153.113679,367.365699 C153.716613,366.929088 159.591145,365.432135 160.357034,364.855184 C161.122923,364.278233 162.068063,361.37009 161.554754,359.86534" id="Shape" fill="#1F161E" fill-rule="nonzero"></path>
                <path d="M97.7911739,165.749064 C95.2547757,171.520444 73.9538774,234.39769 74.4466172,243.565431 C74.939357,252.733172 124.22949,347.199 126.951676,348.196022 C129.673861,349.193044 140.982643,345.707519 141.895423,343.227123 C142.808203,340.746726 124.72223,284.370389 124.22949,269.933831" id="Shape" fill="#1F161E" fill-rule="nonzero"></path>
                <path d="M97.2659176,166.066059 C98.549944,172.855558 119.874535,266.484283 119.874535,266.484283 L158.972327,360.768491 C162.223027,362.346503 171.788211,362.516443 173.462321,362.014716 C175.136432,361.512989 167.099076,271.226412 163.921517,258.432375 C160.743958,245.638337 152.381533,156.816479 152.381533,156.816479 C152.381533,156.816479 108.578353,157.5367 97.2659176,166.066059 Z" id="Shape" fill="#55B79D" fill-rule="nonzero"></path>
                <path d="M108.183521,65.505618 C101.723929,68.531415 60.533866,88.8474808 56.9949212,88.8474808 C53.4559763,88.8474808 15.8048577,67.5200974 13.5920003,66.0846789 C11.4849044,68.1970277 8.27137982,71.5245889 9.05238833,72.6093086 C9.83339684,73.6940283 53.0085235,114.138577 56.6695009,114.138577 C60.3304783,114.138577 97.4121116,102.8265 100.29208,99.7191451" id="Shape" fill="#73E5E2" fill-rule="nonzero"></path>
                <path d="M122.216874,60.7911652 C85.4951498,54.7295325 94.2437979,161.718162 97.8594754,165.772793 C101.475153,169.827424 151.005091,160.084934 154.225304,156.249692 C157.445517,152.41445 147.986646,61.8068544 122.216874,60.7911652 Z" id="Shape" fill="#73E5E2" fill-rule="nonzero"></path>
                <path d="M140.060646,344.400749 C140.503306,345.519256 143.388791,352.026192 142.85596,353.503927 C141.896864,356.181813 127.485834,360.655841 126.575923,360.255791 C125.666011,359.855741 124.731508,358.622934 125.16597,358.010613 C125.600432,357.398291 130.756597,354.116249 131.31402,353.29982 C131.871443,352.483391 131.838654,349.307485 130.854966,347.960377" id="Shape" fill="#1F161E" fill-rule="nonzero"></path>
                <path d="M115.131086,66.5159462 C115.131086,69.0414748 126.048689,69.2345088 126.048689,66.5159462 L126.048689,49.6254682 L115.131086,49.6254682 L115.131086,66.5159462 Z" id="Shape" fill="#F8CDBA" fill-rule="nonzero"></path>
                <path d="M126.048689,58.5580524 C126.048689,57.2698149 122.126881,50.2570253 120.093633,51.0077862 C122.599021,50.0096155 125.127255,49.1906035 126.048689,49.8816448 L126.048689,58.5580524 Z" id="Shape" fill="#000000" fill-rule="nonzero"></path>
                <circle id="Oval" fill="#F8CDBA" fill-rule="nonzero" cx="119.101124" cy="36.7228464" r="14.8876404"></circle>
                <ellipse id="Oval" fill="#FA9E9F" fill-rule="nonzero" cx="104.709738" cy="39.2041199" rx="2.48127341" ry="1.48876404"></ellipse>
                <ellipse id="Oval" fill="#FA9E9F" fill-rule="nonzero" cx="119.597378" cy="39.2041199" rx="2.48127341" ry="1.48876404"></ellipse>
                <path d="M110.168539,35.7303371 C109.854118,36.4494181 108.243397,39.4677829 109.942376,40.6928839" id="Shape" stroke="#1F161E" stroke-width="0.69" stroke-linecap="round"></path>
                <path d="M115.131086,43.670412 C115.942609,43.3642474 116.647547,42.65931 117.116105,41.6853933" id="Shape" stroke="#1F161E" stroke-width="0.69" stroke-linecap="round"></path>
                <circle id="Oval" fill="#F8CDBA" fill-rule="nonzero" cx="128.529963" cy="37.2191011" r="3.47378277"></circle>
                <path d="M153.550195,159.794007 C169.890466,159.349622 181.629213,147.941034 181.629213,118.587352 C181.629213,106.467747 161.424634,69.9796573 157.414503,56.1956269 C155.340577,49.0773792 157.00944,28.1347023 146.421074,17.47753 C141.317271,12.3468973 118.87674,13.5588578 113.084328,15.974699 C107.291917,18.3905402 107.972424,25.6703827 108.563817,26.8096255 C109.949135,25.6461435 112.987113,23.2868605 113.529898,23.3595781 C116.373446,23.7070068 124.134467,32.4169626 126.491938,36.4164322 C128.403839,39.6483267 125.454975,59.718392 129.189662,65.4550049 C132.92435,71.1916178 146.14563,68.1778761 146.14563,68.1778761" id="Shape" fill="#1F161E" fill-rule="nonzero"></path>
                <path d="M122.078652,104.454888 C124.361505,107.286634 141.216981,137.44595 141.216981,141.981613 C141.216981,146.517275 136.217614,178.664493 135.219377,180.222359 C137.502231,181.918162 143.499835,186.59176 143.499835,186.59176 C143.499835,186.59176 161.779026,154.582478 161.779026,136.602106 C161.779026,130.224591 147.214585,78.3930848 133.214721,66.4981273" id="Shape" fill="#73E5E2" fill-rule="nonzero"></path>
                <path d="M122.078652,104.213483 C124.328028,107.046305 140.93633,137.217078 140.93633,141.754464 C140.93633,144.002864 139.718925,153.045168 138.380586,161.779026" id="Shape" stroke="#1F161E" stroke-linecap="round" stroke-linejoin="round"></path>
                <path d="M128.053736,60.7285828 C127.357783,66.638262 144.985872,87.2580778 151.855341,93.2958801 C158.716622,84.8397538 154.598216,63.8916225 154.598216,63.8916225 L140.597272,57.5655431 L128.053736,60.7285828 Z" id="Shape" fill="#1F161E" fill-rule="nonzero"></path>
                <ellipse id="Oval" fill="#1F161E" fill-rule="nonzero" cx="142.921348" cy="8.43632959" rx="6.94756554" ry="8.43632959"></ellipse>
                <path d="M102.228464,74.4382022 C98.7035966,81.6836387 96.5239682,91.1768343 95.2808989,101.235955" id="Shape" stroke="#1F161E" stroke-linecap="round" stroke-linejoin="round"></path>
                <ellipse id="Oval" fill="#F8CDBA" fill-rule="nonzero" cx="6.94756554" cy="66.0018727" rx="6.94756554" ry="5.4588015"></ellipse>
                <path d="M10.917603,49.6254682 L2.97752809,76.423221" id="Shape" stroke="#000000" stroke-width="3" stroke-linecap="round"></path>
            </g>
            <g id="man-holding" transform="translate(32.752809, 173.689139)">
                <path d="M38.3244124,342.41573 C37.9302942,343.389007 35.3247351,349.02975 35.7845397,350.322717 C36.6238654,352.660002 49.4327064,356.631256 50.2501367,356.290254 C51.0675671,355.949252 51.8995943,354.869412 51.5127746,354.3437 C51.1259549,353.817988 46.5571034,350.940783 46.0681049,350.230362 C45.5791064,349.519941 45.6228973,346.749299 46.506014,345.584208" id="Shape" fill="#1F161E" fill-rule="nonzero"></path>
                <path d="M94.0619928,140.93633 C97.2805805,143.852748 143.913858,185.411707 143.913858,207.248388 C143.913858,213.854075 130.648057,310.671867 129.154748,312.640449 L117.628724,312.640449 C117.628724,312.640449 112.554374,231.979614 116.592107,216.216374 C113.598241,214.940441 86.1460067,205.323552 73.9675665,195.014014 C61.7891263,184.704475 70.5025103,145.033897 94.0619928,140.93633 Z" id="Shape" fill="#1F161E" fill-rule="nonzero"></path>
                <path d="M95.0919955,141.061115 C98.742774,141.703438 48.2671105,346.385768 48.2671105,346.385768 L35.7303371,346.385768 C35.7303371,346.385768 40.4909522,152.659439 43.2217346,143.228957 C56.2258076,139.316621 85.2714014,139.316621 95.0919955,141.061115 Z" id="Shape" fill="#AB8FE2" fill-rule="nonzero"></path>
                <path d="M27.7588424,62.9556277 C41.1040357,53.5387288 86.7632454,53.5387288 134.068751,55.4264818 C139.663242,55.652429 155.536155,22.0373072 162.30345,17.2559716 C169.755488,11.993587 181.629213,16.7457681 181.629213,19.5445987 C181.629213,25.6524634 173.164631,25.7982359 171.372646,27.7734523 C169.58066,29.7486686 153.569342,76.7748538 140.049321,83.6990441 C135.678624,85.9439395 103.350039,85.2005001 101.091846,88.1232373 C98.8336523,91.0459745 96.764856,139.529884 94.878172,141.330173 C92.991488,143.130463 48.301116,144.62463 43.1582631,143.51676 C42.8741678,139.748543 36.8571756,108.494934 35.3492853,106.045957 C34.518853,105.973071 22.492153,126.147975 22.4994375,128.691704 C22.4994375,132.04447 43.0781337,160.134817 51.7029748,164.945307 C53.9393145,166.184372 53.6115123,169.712065 53.2035806,170.572122 C52.7956489,171.43218 49.7143079,175.674157 47.7912014,175.674157 C45.868095,175.674157 1.01746412,148.728124 0.00491942862,128.422025 C-0.264606857,122.933693 10.5601515,75.1276254 27.7588424,62.9556277 Z" id="Shape" fill="#FADB93" fill-rule="nonzero"></path>
                <path d="M120.164975,311.64794 C120.164975,312.74285 119.803806,319.222927 120.706728,320.317837 C122.331987,322.291654 135.608548,321.502127 136.236982,320.869016 C136.865415,320.235905 137.255478,318.887751 136.699278,318.500436 C136.143078,318.113121 130.877238,316.958624 130.198241,316.444687 C129.519244,315.93075 128.522419,313.1972 128.905257,311.73732" id="Shape" fill="#1F161E" fill-rule="nonzero"></path>
                <path d="M67.4876736,59.5465438 C67.7417803,62.3677903 51.568637,63.9001424 51.2995828,60.8712408 L49.6254682,42.0104203 L65.8135589,40.6928839 L67.4876736,59.5465438 Z" id="Shape" fill="#F8CDBA" fill-rule="nonzero"></path>
                <path d="M50.5217041,53.5955056 C50.3827528,51.8480056 53.6272659,45.4778455 56.5730337,46.2321083 C52.9325094,45.2089993 50.8135019,40.7879738 49.6254682,41.8484225 L50.5217041,53.5955056 Z" id="Shape" fill="#000000" fill-rule="nonzero"></path>
                <circle id="Oval" fill="#F8CDBA" fill-rule="nonzero" cx="63.0243446" cy="26.3014981" r="20.3464419"></circle>
                <ellipse id="Oval" fill="#FA9E9F" fill-rule="nonzero" transform="translate(84.859551, 27.790262) rotate(-4.870000) translate(-84.859551, -27.790262) " cx="84.8595506" cy="27.7902622" rx="3.47378277" ry="1.98501873"></ellipse>
                <ellipse id="Oval" fill="#FA9E9F" fill-rule="nonzero" transform="translate(63.024345, 29.775281) rotate(-4.870000) translate(-63.024345, -29.775281) " cx="63.0243446" cy="29.7752809" rx="3.47378277" ry="1.98501873"></ellipse>
                <path d="M75.4307116,24.8127341 C76.03666,25.6307744 79.0300448,29.0069238 76.2548014,30.7677903" id="Shape" stroke="#1F161E" stroke-width="1.08" stroke-linecap="round"></path>
                <path d="M70.4681648,35.7287605 C69.3486142,35.7761465 67.5065169,34.7471936 66.4981273,33.7453184" id="Shape" stroke="#1F161E" stroke-width="1.08" stroke-linecap="round"></path>
                <path d="M43.3299046,17.0161966 C42.7203086,9.87907752 52.2681981,3.72084679 59.2308129,3.13643581 C70.3063647,2.1940731 76.5124929,2.44244777 82.5864195,0.448145289 C91.2823435,-2.40085825 91.1207638,9.21431002 91.2382763,10.5365399 C91.7083262,16.0957493 89.9676725,19.7190974 83.8937459,21.1216838 C83.311166,19.2005609 82.4261923,17.3833976 81.2717486,15.7377976 C79.5029761,15.2246495 77.608612,15.3514709 75.9249304,16.0957493 C74.4046127,16.7751271 61.8160876,24.0291284 52.1139629,24.8619141 C50.9755607,26.7685549 49.0806719,38.0696023 50.3218975,42.6645336 C47.4869088,43.0663162 41.4643939,34.3147617 40.774008,29.5152865 C40.3581236,26.1799811 41.5571521,22.8461292 44.0056014,20.5299677 C43.8146436,19.5218587 43.3813163,17.5786922 43.3299046,17.0161966 Z" id="Shape" fill="#000000" fill-rule="nonzero"></path>
                <circle id="Oval" fill="#F8CDBA" fill-rule="nonzero" cx="51.1142322" cy="29.2790262" r="4.46629213"></circle>
                <path d="M51.7941765,165.010959 C43.1468868,160.21361 22.5219324,132.2 22.514629,128.856394 C22.514629,127.228203 27.4590674,118.382182 31.2349532,112.254659 L7.07512695,99.2509363 C2.41552322,113.061486 -0.133382263,125.912566 0.00538336497,128.59472 C1.01326003,148.845347 45.9441098,175.674157 47.8722217,175.674157 C49.8003335,175.674157 52.8896946,171.480111 53.2986881,170.58606 C53.7076815,169.692009 54.0436404,166.24664 51.7941765,165.010959 Z" id="Shape" fill="#F8CDBA" fill-rule="nonzero"></path>
                <path d="M161.420772,17.2553123 C154.679259,22.035317 138.866821,55.6265081 133.264617,55.4151969 C123.780057,55.0362941 129.244383,55.2257455 120.14443,55.0654405 L120.093633,85.3558052 C130.652191,85.3558052 136.210854,85.21736 139.215145,83.679889 C152.690912,76.7576262 168.648485,29.7591049 170.41913,27.7698652 C172.189775,25.7806255 180.636621,25.6494668 180.636621,19.5433024 C180.672905,16.7452509 168.822647,11.9943926 161.420772,17.2553123 Z" id="Shape" fill="#F8CDBA" fill-rule="nonzero"></path>
            </g>
        </g>
    </g>
</svg>