
<svg width="342px" height="259px" viewBox="0 0 342 259" version="1.1" xmlns="http://www.w3.org/2000/svg" xmlns:xlink="http://www.w3.org/1999/xlink">
    <!-- Generator: Sketch 51.3 (57544) - http://www.bohemiancoding.com/sketch -->
    <desc>Created with Sketch.</desc>
    <defs></defs>
    <g id="Page-1" stroke="none" stroke-width="1" fill="none" fill-rule="evenodd">
        <g id="Group" transform="translate(170.000000, 128.500000) scale(-1, 1) translate(-170.000000, -128.500000) ">
            <g id="circle-bg" transform="translate(51.000000, 0.000000)" fill="#FAEFE9" fill-rule="nonzero">
                <circle id="Oval" cx="128.5" cy="128.5" r="128.5"></circle>
            </g>
            <g id="plant-3" transform="translate(278.000000, 152.000000)" fill-rule="nonzero">
                <path d="M43.67776,22.5774882 C53.10176,24.3739336 51.42032,80.800237 33.3312,77.3864929 C16.24896,74.1469194 32.18048,20.4028436 43.67776,22.5774882 Z" id="Shape" fill="#000000"></path>
                <path d="M2.30144,29.5741706 C9.80096,25.3194313 41.1928,64.9507109 26.8336,73.0969194 C13.268,80.7952607 -6.82992,34.7545024 2.30144,29.5741706 Z" id="Shape" fill="#FBDC8E"></path>
                <path d="M40.51824,104.661611 L21.58096,104.661611 C20.00166,104.661156 18.6751547,103.469592 18.5008,101.894787 L16.11008,80.3523697 C16.0127511,79.473277 16.2930943,78.5941893 16.8809694,77.9350486 C17.4688445,77.2759079 18.3086384,76.8990692 19.19024,76.8988152 L42.80976,76.8988152 C43.6889879,76.8979565 44.5270861,77.2723132 45.1147882,77.9284113 C45.7024902,78.5845094 45.9843247,79.4604221 45.88992,80.3374408 L43.60336,101.879858 C43.4336742,103.461358 42.1036651,104.660584 40.51824,104.661611 Z" id="Shape" fill="#969696"></path>
                <path d="M48.99984,0.612085308 C56.17696,2.707109 50.67632,46.2796209 36.93216,42.2537915 C23.9568,38.4668246 40.26528,-1.93578199 48.99984,0.612085308 Z" id="Shape" fill="#AB8DE5"></path>
                <path d="M60.8344,35.2670616 C65.7944,39.5616114 45.61712,72.3703791 36.084,64.1296209 C27.0816,56.3815166 54.77824,30.0419431 60.8344,35.2670616 Z" id="Shape" fill="#FBDC8E"></path>
                <path d="M31.0992,5.14549763 C41.84256,5.14549763 51.67824,73.9627962 31.0992,73.9627962 C11.66592,73.9627962 18.01968,5.14549763 31.0992,5.14549763 Z" id="Shape" fill="#78E5E1"></path>
                <rect id="Rectangle-path" fill="#D8D8D8" x="10.14816" y="72.2161137" width="41.8128" height="7.70331754" rx="3.85165877"></rect>
            </g>
            <g id="woman-scooter" transform="translate(0.000000, 68.000000)">
                <path d="M11.441285,167.940712 L35.0305374,53.8275989" id="Shape" stroke="#D8D8D8" stroke-width="4" stroke-linecap="round" stroke-linejoin="round"></path>
                <path d="M75.7195093,59.7120317 C73.3655607,61.981029 68.2545561,69.9599208 65.8508411,69.9599208 C59.1821495,69.9599208 38.7679907,57.4430343 37.3695561,54.0021372 C37.016215,53.0596306 39.4199299,50.6510026 40.0867991,50.6510026 C40.7536682,50.6510026 52.6528037,57.7970976 59.9585047,57.1338522 C63.9398131,56.7748021 66.5774299,48.8308179 70.877243,44.2180211" id="Shape" fill="#1F161E" fill-rule="nonzero"></path>
                <path d="M200.319533,68.7231926 C200.817196,68.1646702 203.464766,64.7337467 204.415304,64.6040897 C206.127266,64.3447757 212.656612,70.7877309 212.706379,71.3961214 C212.756145,72.0045119 212.358014,72.8522691 211.900164,72.7974142 C211.442313,72.7425594 208.2075,70.9173879 207.605327,70.8575462 C207.003154,70.7977045 205.311098,71.7252507 204.868178,72.6378364" id="Shape" fill="#1F161E" fill-rule="nonzero"></path>
                <path d="M74.3360047,72.5430871 C72.2507944,74.4580211 50.6870327,115.629103 50.6870327,120.915119 C50.6870327,126.201135 67.995771,165.831293 69.443972,166.67905 C70.8921729,167.526807 75.1671028,166.848602 76.256986,165.656755 C77.3468692,164.464908 70.7826869,121.932427 70.7826869,121.932427 L102.83222,88.9297361 L74.3360047,72.5430871 Z" id="Shape" fill="#1F161E" fill-rule="nonzero"></path>
                <path d="M99.9557243,56.7199472 C102.289766,58.1012929 135.921869,77.1359367 145.143575,85.7132454 C150.15007,84.3967282 199.682523,67.1024802 200.339439,67.496438 C200.996355,67.8903958 205.873458,71.6554354 205.873458,72.5430871 C205.873458,73.4307388 155.047079,114.22781 141.336449,114.22781 C136.329953,114.22781 88.2506776,86.0373879 74.3509346,72.5430871 C72.9475234,64.9880739 93.4960514,52.8900792 99.9557243,56.7199472 Z" id="Shape" fill="#FADB93" fill-rule="nonzero"></path>
                <path d="M78.3720561,29.023219 C83.4332944,27.2329551 99.9109346,55.4532982 99.9109346,56.7199472 C99.9109346,57.9865963 76.6401869,72.7126385 74.2862383,72.5430871 C71.9322897,72.3735356 54.5140654,37.4658839 78.3720561,29.023219 Z" id="Shape" fill="#AB8FE2" fill-rule="nonzero"></path>
                <path d="M62.2079439,18.4511873 C61.5261449,18.3913456 59.2617757,15.5638259 60.4710981,9.24055409 C61.934229,7.32063325 66.781472,6.71224274 66.9407243,8.88649077 C67.0999766,11.0607388 64.2881776,18.6456728 62.2079439,18.4511873 Z" id="Shape" fill="#1F161E" fill-rule="nonzero"></path>
                <path d="M72.3602804,35.8451715 C72.529486,37.0968602 79.4071963,36.2441161 79.2230607,34.9026649 L78.0784346,26.5447757 L71.2156542,27.4872823 L72.3602804,35.8451715 Z" id="Shape" fill="#F8CDBA" fill-rule="nonzero"></path>
                <path d="M78.7602336,31.5365699 C78.6607009,30.7935356 76.6103271,28.4646966 75.3611916,29.0730871 C76.898972,28.2801847 77.431472,26.2256201 78.0784346,26.5447757 L78.7602336,31.5365699 Z" id="Shape" fill="#000000" fill-rule="nonzero"></path>
                <ellipse id="Oval" fill="#F8CDBA" fill-rule="nonzero" cx="70.7627804" cy="21.3235884" rx="8.99775701" ry="9.01614776"></ellipse>
                <ellipse id="Oval" fill="#FA9E9F" fill-rule="nonzero" transform="translate(61.962546, 23.495892) rotate(-8.049062) translate(-61.962546, -23.495892) " cx="61.962546" cy="23.4958916" rx="1.50271847" ry="1"></ellipse>
                <ellipse id="Oval" fill="#FA9E9F" fill-rule="nonzero" transform="translate(71.266409, 22.472924) rotate(-7.820000) translate(-71.266409, -22.472924) " cx="71.2664091" cy="22.4729238" rx="1.50294393" ry="1"></ellipse>
                <path d="M65.3233178,21.6527177 C65.0993692,22.0865699 63.9,23.9566227 65.5024766,24.4203958" id="Shape" stroke="#1F161E" stroke-width="0.69" stroke-linecap="round"></path>
                <path d="M68.7621729,25.9613193 C69.2100701,25.8865172 69.8221963,25.2482058 70.1207944,24.6946702" id="Shape" stroke="#1F161E" stroke-width="0.69" stroke-linecap="round"></path>
                <path d="M74.0324299,1.89498681 C85.9415187,1.89498681 94.4913785,3.85480211 100.060234,3.85480211 C108.634977,3.85480211 115.403201,0 125.018061,0 C129.3975,0 140.60986,3.73013193 140.60986,16.3567282 C140.60986,23.5127968 136.628551,37.7251979 119.573621,37.7251979 C104.972173,37.7251979 102.429112,31.5365699 96.5069159,31.5365699 C90.266215,31.5365699 78.6607009,34.4837731 76.7048832,26.5098681 C76.2768925,24.3904749 75.7991355,21.7923483 74.6296262,19.6579947 C68.1152103,17.3790237 66.0001402,17.578496 62.9196028,15.7533245 C58.4704907,13.6339314 58.2564953,1.89498681 74.0324299,1.89498681 Z" id="Shape" fill="#1F161E" fill-rule="nonzero"></path>
                <ellipse id="Oval" fill="#F8CDBA" fill-rule="nonzero" cx="76.256986" cy="20.9994459" rx="1.98070093" ry="1.98474934"></ellipse>
                <path d="M75.7991355,165.417388 C75.9583879,166.135488 77.0930607,170.324406 76.6401869,171.172164 C75.8190421,172.698127 66.7565888,174.084459 66.248972,173.75533 C65.7413551,173.426201 65.2884813,172.608364 65.606986,172.259288 C65.9254907,171.910211 69.3195561,170.414169 69.7276402,169.97533 C70.1357243,169.536491 70.4094393,167.606596 69.9466121,166.708971" id="Shape" fill="#1F161E" fill-rule="nonzero"></path>
                <path d="M21.4891121,177.739789 L114.004766,177.739789" id="Shape" stroke="#D8D8D8" stroke-width="4" stroke-linecap="round" stroke-linejoin="round"></path>
                <path d="M34.3338084,52.9349604 L41.0671963,48.6064116" id="Shape" stroke="#969696" stroke-width="4" stroke-linecap="round"></path>
                <ellipse id="Oval" fill="#F8CDBA" fill-rule="nonzero" cx="36.4936682" cy="51.3840633" rx="3.79219626" ry="2.16427441"></ellipse>
                <ellipse id="Oval" fill="#F8CDBA" fill-rule="nonzero" cx="33.5425234" cy="53.8275989" rx="3.79219626" ry="2.16427441"></ellipse>
                <path d="M27.1226636,57.5677045 L32.2038084,54.3013456" id="Shape" stroke="#969696" stroke-width="4" stroke-linecap="round"></path>
                <path d="M78.2376869,60.3054617 C75.8837383,62.5694723 65.9404206,71.9596306 63.5466589,71.9596306 C56.8779673,71.9596306 36.468785,59.4427441 35.0653738,56.001847 C34.7120327,55.0593404 37.1157477,52.6507124 37.7826168,52.6507124 C38.449486,52.6507124 53.0011682,60.3403694 60.3068692,59.6621636 C64.2881776,59.3031135 71.9820561,45.3001583 76.2818692,40.6823747" id="Shape" fill="#AB8FE2" fill-rule="nonzero"></path>
                <ellipse id="Oval" stroke="#969696" stroke-width="4" cx="10.7445561" cy="177.814591" rx="10.7445561" ry="10.7665172"></ellipse>
                <ellipse id="Oval" stroke="#969696" stroke-width="4" cx="124.749322" cy="177.814591" rx="10.7445561" ry="10.7665172"></ellipse>
                <path d="M66.2539486,54.032058 C68.0554907,51.6683113 70.1008879,48.6762269 71.8476869,46.1728496" id="Shape" stroke="#1F161E" stroke-linecap="round" stroke-linejoin="round"></path>
                <path d="M78.2376869,60.3054617 C77.0582243,61.437467 73.9876402,64.3497625 70.9071028,66.9827968" id="Shape" stroke="#1F161E" stroke-linecap="round" stroke-linejoin="round"></path>
                <path d="M75.4955607,63.2077836 C74.823715,63.8211609 71.355,68.7581003 72.365257,70.2591293 C71.0763084,67.8804222 70.7179907,67.1423747 70.7179907,67.1423747" id="Shape" fill="#1F161E" fill-rule="nonzero"></path>
            </g>
        </g>
    </g>
</svg>