
<svg width="918px" height="773px" viewBox="0 0 918 773" version="1.1" xmlns="http://www.w3.org/2000/svg" xmlns:xlink="http://www.w3.org/1999/xlink">
    <!-- Generator: Sketch 51.3 (57544) - http://www.bohemiancoding.com/sketch -->
    <desc>Created with Sketch.</desc>
    <defs></defs>
    <g id="Page-1" stroke="none" stroke-width="1" fill="none" fill-rule="evenodd">
        <g id="example-scene-1" transform="translate(-1.000000, 0.000000)">
            <g id="Background" transform="translate(82.000000, 0.000000)" fill="#FAEFE9" fill-rule="nonzero">
                <circle id="Oval" cx="387.03" cy="386.5" r="386.5"></circle>
            </g>
            <g id="Middle_ground" transform="translate(37.000000, 37.000000)">
                <rect id="Rectangle-path" fill="#FFFFFF" fill-rule="nonzero" x="409.53" y="181" width="237" height="367"></rect>
                <path d="M362.03,405 L605.03,405" id="Shape" stroke="#000000"></path>
                <path d="M362.03,429 L605.03,429" id="Shape" stroke="#000000"></path>
                <path d="M362.03,453 L605.03,453" id="Shape" stroke="#000000"></path>
                <path d="M362.03,477 L605.03,477" id="Shape" stroke="#000000"></path>
                <circle id="Oval" fill="#F2F2F2" fill-rule="nonzero" cx="528.03" cy="288" r="62"></circle>
                <rect id="Rectangle-path" fill="#50B89D" fill-rule="nonzero" opacity="0.7" x="605.03" y="311.5" width="98" height="91"></rect>
                <text id="&lt;-/-&gt;" fill="#FFFFFF" font-family="Helvetica" font-size="44.04" font-weight="normal">
                    <tspan x="630.15" y="371.41">&lt; / </tspan>
                    <tspan x="630.15" y="424.41">&gt;</tspan>
                </text>
                <rect id="Rectangle-path" stroke="#000000" x="0.03" y="0.5" width="529" height="348"></rect>
                <path d="M0.03,19 L529.03,19" id="Shape" stroke="#000000"></path>
                <rect id="Rectangle-path" stroke="#000000" x="38.53" y="50" width="159" height="159"></rect>
                <path d="M228.03,64 L471.03,64" id="Shape" stroke="#000000"></path>
                <path d="M228.03,88 L471.03,88" id="Shape" stroke="#000000"></path>
                <path d="M228.03,112 L471.03,112" id="Shape" stroke="#000000"></path>
                <path d="M228.03,136 L471.03,136" id="Shape" stroke="#000000"></path>
                <polygon id="Shape" fill="#50B89D" fill-rule="nonzero" opacity="0.44" points="118.03 92 74.73 167 161.33 167"></polygon>
                <circle id="Oval" fill="#AB8DE5" fill-rule="nonzero" cx="11.53" cy="10" r="4.5"></circle>
                <circle id="Oval" fill="#73E5E2" fill-rule="nonzero" cx="27.03" cy="10" r="4.5"></circle>
                <circle id="Oval" fill="#50B89D" fill-rule="nonzero" cx="42.53" cy="10" r="4.5"></circle>
                <polygon id="Shape" fill="#AB8DE5" fill-rule="nonzero" points="233.03 284.25 248.03 271 232.73 271"></polygon>
                <rect id="Rectangle-path" fill="#AB8DE5" fill-rule="nonzero" x="218.03" y="221.5" width="116" height="51" rx="20.68"></rect>
                <circle id="Oval" fill="#FFFFFF" fill-rule="nonzero" cx="260.53" cy="247" r="4.5"></circle>
                <circle id="Oval" fill="#FFFFFF" fill-rule="nonzero" cx="276.03" cy="247" r="4.5"></circle>
                <circle id="Oval" fill="#FFFFFF" fill-rule="nonzero" cx="291.53" cy="247" r="4.5"></circle>
                <polygon id="Shape" fill="#73E5E2" fill-rule="nonzero" points="708.03 134.25 693.03 121 708.33 121"></polygon>
                <rect id="Rectangle-path" fill="#73E5E2" fill-rule="nonzero" transform="translate(665.030000, 97.000000) rotate(-180.000000) translate(-665.030000, -97.000000) " x="607.03" y="71.5" width="116" height="51" rx="20.68"></rect>
                <circle id="Oval" fill="#FFFFFF" fill-rule="nonzero" cx="680.53" cy="97" r="4.5"></circle>
                <circle id="Oval" fill="#FFFFFF" fill-rule="nonzero" cx="665.03" cy="97" r="4.5"></circle>
                <circle id="Oval" fill="#FFFFFF" fill-rule="nonzero" cx="649.53" cy="97" r="4.5"></circle>
                <circle id="Oval" fill="#F98B67" fill-rule="nonzero" cx="700.03" cy="5.5" r="4.5"></circle>
                <circle id="Oval" fill="#F98B67" fill-rule="nonzero" cx="709.53" cy="24" r="4.5"></circle>
                <circle id="Oval" fill="#F98B67" fill-rule="nonzero" cx="606.03" cy="206.5" r="7"></circle>
                <circle id="Oval" fill="#F98B67" fill-rule="nonzero" cx="647.03" cy="230.5" r="7"></circle>
                <circle id="Oval" fill="#F98B67" fill-rule="nonzero" cx="17.03" cy="238.5" r="7"></circle>
                <path d="M622.23,558.25 L622.23,557.25 L619.83,554.25 L614.28,547.51 L608.38,540.37 C608.38,540.37 602.7,536.44 601.24,535.76 C595.92,533.3 590.68,531.42 584.42,531.42 C580.57,531.42 566.18,532 566.15,534.42 C566.15,538.01 586.3,551.6 601.08,558.2 C607.57,558.25 622.23,558.25 622.23,558.25 Z" id="Shape" fill="#1F161E" fill-rule="nonzero"></path>
                <path d="M619.18,558.25 C598.67,542.47 556.8,456.4 567.54,424.5 C590.4,436.15 615.48,476.32 627.31,510.24 C627.946302,512.44598 628.457121,514.686235 628.84,516.95 L633.64,538.95 L634.8,558.28 L619.18,558.25 Z" id="Shape" fill="#FBDC8E" fill-rule="nonzero"></path>
                <path d="M633.18,558.25 C626.26,552.63 624.05,535.99 623.99,529.78 C623.88,518.19 625.66,509.65 635.57,496.9 C645.48,484.15 642.84,463 656,448.73 C669.16,434.46 677.88,430.48 693.5,430.48 C709.12,430.48 714.08,455.8 714,462.17 C713.82,487.87 697.63,491.51 687.75,503.77 C680.58,512.67 680.02,519.95 677.85,524.11 C666.21,546.53 656.75,554.96 649.75,558.25" id="Shape" fill="#73E5E2" fill-rule="nonzero"></path>
                <path d="M637,556.39 C637.2,512.56 683.39,446.73 693.26,436.86" id="Shape" stroke="#FFFFFF" stroke-width="0.4" stroke-linecap="round" stroke-linejoin="round"></path>
                <path d="M639.49,536.47 C634.38,530.9 629.73,515.11 630.43,511.01" id="Shape" stroke="#FFFFFF" stroke-width="0.4" stroke-linecap="round" stroke-linejoin="round"></path>
                <path d="M626.4,554.47 C619.16,541.64 584.81,479.08 572,433" id="Shape" stroke="#FFFFFF" stroke-width="0.4" stroke-linecap="round" stroke-linejoin="round"></path>
                <polyline id="Shape" fill="#B37361" fill-rule="nonzero" points="649.79 558.25 671.31 558.25 653.31 625.25 605.18 625.25 587.47 558.25 649.79 558.25"></polyline>
                <path d="M573.19,535.78 C583.68,536.5 596.88,536.98 606.19,543.33" id="Shape" stroke="#FFFFFF" stroke-width="0.4" stroke-linecap="round" stroke-linejoin="round"></path>
            </g>
            <g id="Man" transform="translate(760.000000, 102.000000)">
                <path d="M16.47,219 C13.94,231.07 -4.44,380.79 1.57,416.55 C7.58,452.31 105.57,527.24 109.86,528.55 C114.86,524.88 122.22,512.85 122.22,512.85 C122.22,512.85 50.37,429.56 49,426.22 C47.63,422.88 64.74,230 64.74,230 L16.47,219 Z" id="Shape" fill="#1F161E" fill-rule="nonzero"></path>
                <polygon id="Shape" fill="#AB8DE5" fill-rule="nonzero" points="133.49 246.25 60.18 545.26 35.49 545.26 60.51 233.33"></polygon>
                <path d="M81.42,75.05 C91.54,75.05 144.33,76.76 153.87,95.34 C163.41,113.92 154.42,199.8 148.49,203.13 C145.29,204.92 144.42,203.18 143.49,206.82 C142.56,210.46 133.49,246.25 133.49,246.25 C127.73,246.41 43.75,233.76 16.49,218.97 C16.65,214.86 17.97,204.17 17.97,203.35 C14.35,204.83 9.97,205.14 8.77,203.35 C-1.87,187.24 13.99,103.25 25.37,86.35 C30.21,79.1 65.18,75.1 81.42,75.05 Z" id="Shape" fill="#FBDC8E" fill-rule="nonzero"></path>
                <path d="M116.18,205.45 C118.66,205.45 140.01,220.45 138.18,227.82 C139.68,221.9 144.4,203.61 144.4,203.61 C142.37,204 118,205.48 116.18,205.45 Z" id="Shape" fill="#1F161E" fill-rule="nonzero"></path>
                <path d="M94.49,84.85 C94.49,88.11 68.78,88.11 68.78,84.85 L68.78,51.85 L94.49,51.85 L94.49,84.85 Z" id="Shape" fill="#F8CDBA" fill-rule="nonzero"></path>
                <path d="M79.74,59.66 C81.74,59.66 94.49,65.3 94.49,68.44 L94.49,51.85 C91.31,51.85 79.74,59.66 79.74,59.66 Z" id="Shape" fill="#1F161E" fill-rule="nonzero"></path>
                <circle id="Oval" fill="#F8CDBA" fill-rule="nonzero" cx="76.22" cy="37.06" r="25.01"></circle>
                <path d="M67.76,0.5 C54.92,0.5 46.92,8.56 46.92,18.89 C46.92,27.48 49,32.34 51.45,33.57 C53,25.23 56.37,21.37 59.16,19.71 C61.33,21.37 65.04,25.39 70,26.63 C74.96,27.87 87.87,27.63 98.3,35.21 C101.71,32.11 105.11,28.08 105.11,23.33 C105.11,18.58 103.01,12.62 90.66,9.18 C82.5,6.91 81.36,0.5 67.76,0.5 Z" id="Shape" fill="#1F161E" fill-rule="nonzero"></path>
                <ellipse id="Oval" fill="#FA9E9F" fill-rule="nonzero" cx="52.85" cy="42.21" rx="4.38" ry="2.28"></ellipse>
                <ellipse id="Oval" fill="#FA9E9F" fill-rule="nonzero" cx="80.4" cy="42.21" rx="4.38" ry="2.28"></ellipse>
                <path d="M63.55,37.48 C62.73,38.65 58.55,43.56 62.96,45.54" id="Shape" stroke="#1F161E" stroke-linecap="round"></path>
                <path d="M71.79,51.28 C73.11,51.28 75.14,49.64 76.21,48.17" id="Shape" stroke="#1F161E" stroke-linecap="round"></path>
                <circle id="Oval" fill="#F8CDBA" fill-rule="nonzero" cx="99.34" cy="39.94" r="5.78"></circle>
                <path d="M116.76,124.26 C116.31,129.78 114.55,157.06 115.21,160.65 C106.82,163.57 30,200 16.71,204" id="Shape" stroke="#1F161E" stroke-linecap="round"></path>
                <path d="M27.54,115.65 C25.77,121.83 19.81,149.88 24,162.91" id="Shape" stroke="#1F161E" stroke-linecap="round"></path>
                <path d="M47.15,191.24 C51.15,194.05 89.49,211.02 142.5,204.62" id="Shape" stroke="#1F161E" stroke-linecap="round"></path>
                <path d="M43.48,162.91 C46.05,163.32 37.67,156.63 32.92,159.12 C28.17,161.61 21.77,172.88 23.08,175.49 C23.4374616,176.449474 24.2105827,177.195193 25.1823266,177.517812 C26.1540704,177.840431 27.2196768,177.705169 28.08,177.15 C29.37,176.32 39,162.19 43.48,162.91 Z" id="Shape" fill="#F8CDBA" fill-rule="nonzero"></path>
                <path d="M121.4,514.08 C122.77,515.08 134.92,523.3 135.02,528.48 C135.12,533.66 123.7,550.83 121.4,551.32 C119.1,551.81 117.46,549.87 117.46,546.4 C117.46,542.93 121.8,536.85 121.22,534.15 C120.64,531.45 115.03,526.51 112.15,526.42" id="Shape" fill="#1F161E" fill-rule="nonzero"></path>
                <path d="M57.84,545.26 C57.84,547.64 59.22,562.58 56.46,563.97 C53.7,565.36 23.24,566.18 21.86,564.8 C20.48,563.42 19.64,560.51 20.86,559.68 C22.08,558.85 33.86,556.49 35.46,555.39 C37.06,554.29 39.27,548.39 38.46,545.26" id="Shape" fill="#1F161E" fill-rule="nonzero"></path>
            </g>
            <g id="Woman" transform="translate(0.000000, 215.000000)">
                <rect id="Rectangle-path" fill="#B37361" fill-rule="nonzero" x="27.01" y="321.34" width="193.38" height="98.09"></rect>
                <path d="M315.66,275.37 C316.5,280.37 330.76,394.68 333.07,396.57 C335.38,398.46 359.91,402.65 362.01,399.51 C362.43,394.51 363.01,314.79 364.31,307.66" id="Shape" fill="#1F161E" fill-rule="nonzero"></path>
                <path d="M39.76,251.52 C29.87,246.65 50.49,343.19 104.76,343.19 C159.03,343.19 250.38,260.52 265.17,260.52 C297.82,260.52 375.11,324.62 381.17,324.62 C385.81,319.98 395.09,311.86 395.09,308.62 C395.09,305.38 321.09,183.62 265.72,183.62 C244.25,183.65 62.09,262.55 39.76,251.52 Z" id="Shape" fill="#50B89D" fill-rule="nonzero"></path>
                <path d="M70.3,253.16 C81.15,250.7 94.65,244.33 106.6,237.82 C74.09,248.45 47.45,255.32 39.76,251.52 C34.52,248.94 37.84,274.78 50.16,299.67 C47.93,294.86 44.75,259 70.3,253.16 Z" id="Shape" fill="#1F161E" fill-rule="nonzero"></path>
                <path d="M94.22,83.8 C102.77,84.03 147.28,82.72 159.48,94.34 C168.53,102.96 196.67,177.09 201.01,203.12 C182.11,212.73 45.79,278 3.6,249.3 C2.67,227 7,138.35 34.59,91.86 C44.68,85.14 86,83.59 94.22,83.8 Z" id="Shape" fill="#73E5E2" fill-rule="nonzero"></path>
                <path d="M111.56,62.59 L85.56,62.59 L85.56,90.53 C85.56,97.53 111.56,97.47 111.56,90.53 L111.56,62.59 Z" id="Shape" fill="#F8CDBA" fill-rule="nonzero"></path>
                <path d="M85.56,79.46 C85.56,76.36 94.15,68.57 99.46,68.85 C99.59,65.4 87.33,60.44 87.33,60.44 L85.56,65.21 L85.56,79.46 Z" id="Shape" fill="#1F161E" fill-rule="nonzero"></path>
                <path d="M138.79,62.59 C139.373836,59.8855519 139.668824,57.1267496 139.67,54.36 C139.67,33.74 123.56,17.02 103.67,17.02 C83.78,17.02 67.67,33.74 67.67,54.36 C67.6711763,57.1267496 67.9661637,59.8855519 68.55,62.59 L138.79,62.59 Z" id="Shape" fill="#1F161E" fill-rule="nonzero"></path>
                <path d="M129.3,37.42 C124.89,36.75 120.49,33.28 117.42,31.01 C99.92,43.83 88.71,44 87.5,44 C86.29,44 81.36,51.08 79.09,51.88 L78.89,51.76 C80.7303021,61.9185119 88.14361,70.169959 98.0477574,73.0837092 C107.951905,75.9974593 118.65251,73.0750338 125.700675,65.531464 C132.74884,57.9878942 134.938779,47.1137192 131.36,37.43 C130.675547,37.5116052 129.983629,37.5082464 129.3,37.42 Z" id="Shape" fill="#F8CDBA" fill-rule="nonzero"></path>
                <circle id="Oval" fill="#1F161E" fill-rule="nonzero" cx="84.17" cy="11.05" r="10.62"></circle>
                <path d="M88.9,43.43 C86.5161318,43.5428478 84.6413646,45.5084623 84.6413646,47.895 C84.6413646,50.2815377 86.5161318,52.2471522 88.9,52.36" id="Shape" stroke="#1F161E" stroke-linecap="round"></path>
                <path d="M122.94,44 C124.25,45.75 127.62,48.82 122.94,52.07" id="Shape" stroke="#1F161E" stroke-linecap="round"></path>
                <path d="M108.75,54.41 C108.75,55.72 109.31,58.85 112.12,59.66" id="Shape" stroke="#1F161E" stroke-linecap="round"></path>
                <ellipse id="Oval" fill="#FA9E9F" fill-rule="nonzero" cx="100.04" cy="52.58" rx="4.12" ry="2.14"></ellipse>
                <ellipse id="Oval" fill="#FA9E9F" fill-rule="nonzero" cx="130.67" cy="52.58" rx="4.12" ry="2.14"></ellipse>
                <path d="M158.54,161.07 L186.33,153.92 C189,158.46 202,203.07 202,203.07 L159.1,221.15 C159.66,212.7 161.35,174 158.54,161.07 Z" id="Shape" fill="#F8CDBA" fill-rule="nonzero"></path>
                <path d="M61.1,154.08 C61.1,157.44 58.27,170.23 56.6,176.24" id="Shape" stroke="#1F161E" stroke-linecap="round"></path>
                <path d="M158.54,161.07 C157.87,155.78 153.95,125.97 147.28,110.28" id="Shape" stroke="#1F161E" stroke-linecap="round"></path>
                <path d="M158.54,161.07 L186.33,153.92 C189,158.46 202,203.07 202,203.07 L159.1,221.15 C159.66,212.7 161.35,174 158.54,161.07 Z" id="Shape" fill="#F8CDBA" fill-rule="nonzero"></path>
                <path d="M382,322.26 C382.62,323.26 390.9,333.42 393.83,333.53 C396.76,333.64 414.55,321.59 413.77,319 C412.99,316.41 401.83,318.1 399.91,317.19 C397.99,316.28 393.7,312 393,310.1" id="Shape" fill="#1F161E" fill-rule="nonzero"></path>
                <path d="M338.25,397.63 C338.04,398.74 336.91,411.83 338.94,413.95 C340.97,416.07 362.14,419.75 363.37,417.34 C364.6,414.93 355.37,408.4 354.66,406.42 C353.95,404.44 353.8,398.42 354.66,396.54" id="Shape" fill="#1F161E" fill-rule="nonzero"></path>
                <polygon id="Shape" fill="#969696" fill-rule="nonzero" points="305.06 205.87 210.89 205.87 233.31 146.46 327.48 146.46"></polygon>
                <rect id="Rectangle-path" fill="#969696" fill-rule="nonzero" x="132.42" y="203.63" width="94.17" height="2.24"></rect>
                <path d="M56.6,176.24 C54.79,183 46,212 49.58,217 C53.16,222 142.82,210.67 166.81,203.2 C172.92,201.2 177.45,195.96 180.16,195.28 C187.366158,194.060017 194.333611,198.466415 196.32,205.5 C186.74,210.14 48.42,280.76 3.6,249.33 C-4.87,243.26 9.99,169.26 10.67,165.53 C18.24,166.44 56.6,176.24 56.6,176.24 Z" id="Shape" fill="#F8CDBA" fill-rule="nonzero"></path>
                <path d="M159.82,205 C162.52,204.36 164.88,203.73 166.82,203.13 C172.93,201.13 177.46,195.89 180.17,195.21 C187.376158,193.990017 194.343611,198.396415 196.33,205.43" id="Shape" stroke="#1F161E" stroke-linecap="round"></path>
            </g>
        </g>
    </g>
</svg>